<svg xmlns="http://www.w3.org/2000/svg" xmlns:xlink="http://www.w3.org/1999/xlink" version="1.1" width="256" height="256" viewBox="0 0 256 256" xml:space="preserve">
<g style="stroke: none; stroke-width: 0; stroke-dasharray: none; stroke-linecap: butt; stroke-linejoin: miter; stroke-miterlimit: 10; fill: none; fill-rule: nonzero; opacity: 1;" transform="translate(1.4065934065934016 1.4065934065934016) scale(2.81 2.81)">
	<circle cx="45" cy="45" r="45" style="stroke: none; stroke-width: 1; stroke-dasharray: none; stroke-linecap: butt; stroke-linejoin: miter; stroke-miterlimit: 10; fill: rgb(51,66,174); fill-rule: nonzero; opacity: 1;" transform="  matrix(1 0 0 1 0 0) "/>
	<path d="M 5.555 66.664 C 13.21 80.573 28.002 90 45 90 c 15.253 0 28.724 -7.596 36.862 -19.204 c -2.893 -1.929 -6.366 -3.058 -10.104 -3.058 c -0.733 0 -1.452 0.055 -2.162 0.14 c -4.323 -9.026 -13.516 -15.276 -24.192 -15.276 c -8.304 0 -15.725 3.774 -20.648 9.698 c -1.936 -0.7 -4.014 -1.101 -6.191 -1.101 C 13.468 61.199 8.865 63.294 5.555 66.664 z" style="stroke: none; stroke-width: 1; stroke-dasharray: none; stroke-linecap: butt; stroke-linejoin: miter; stroke-miterlimit: 10; fill: rgb(61,78,198); fill-rule: nonzero; opacity: 1;" transform=" matrix(1 0 0 1 0 0) " stroke-linecap="round"/>
	<path d="M 38.015 12.009 l -0.807 -2.731 c -0.038 -0.1 -0.084 -0.198 -0.135 -0.292 c -0.053 -0.096 -0.113 -0.189 -0.179 -0.277 c -0.066 -0.088 -0.139 -0.171 -0.216 -0.249 c -0.078 -0.078 -0.161 -0.15 -0.249 -0.216 c -0.087 -0.066 -0.18 -0.126 -0.277 -0.179 c -0.094 -0.051 -0.192 -0.097 -0.292 -0.135 l -2.731 -0.807 l 2.731 -0.807 c 0.1 -0.038 0.198 -0.084 0.292 -0.135 c 0.096 -0.053 0.189 -0.113 0.277 -0.179 c 0.088 -0.066 0.171 -0.139 0.249 -0.216 c 0.077 -0.077 0.15 -0.161 0.216 -0.249 c 0.066 -0.087 0.126 -0.181 0.179 -0.277 c 0.052 -0.094 0.097 -0.192 0.135 -0.292 l 0.807 -2.731 l 0.807 2.731 c 0.038 0.1 0.084 0.198 0.135 0.292 c 0.053 0.096 0.113 0.19 0.179 0.277 c 0.066 0.087 0.139 0.171 0.216 0.249 c 0.077 0.077 0.161 0.15 0.249 0.216 c 0.088 0.066 0.181 0.126 0.277 0.179 c 0.094 0.052 0.192 0.097 0.292 0.135 L 42.9 7.125 l -2.731 0.807 c -0.1 0.038 -0.198 0.084 -0.292 0.135 c -0.096 0.053 -0.189 0.113 -0.277 0.179 c -0.087 0.066 -0.171 0.138 -0.249 0.216 c -0.077 0.078 -0.15 0.161 -0.216 0.249 c -0.066 0.087 -0.126 0.181 -0.179 0.277 c -0.052 0.093 -0.097 0.191 -0.135 0.292 L 38.015 12.009 z" style="stroke: none; stroke-width: 1; stroke-dasharray: none; stroke-linecap: butt; stroke-linejoin: miter; stroke-miterlimit: 10; fill: rgb(113,126,214); fill-rule: nonzero; opacity: 1;" transform=" matrix(1 0 0 1 0 0) " stroke-linecap="round"/>
	<path d="M 81.369 40.85 l -0.705 -2.387 c -0.033 -0.087 -0.073 -0.173 -0.118 -0.255 c -0.046 -0.084 -0.099 -0.165 -0.156 -0.242 c -0.058 -0.077 -0.121 -0.15 -0.189 -0.217 c -0.068 -0.068 -0.141 -0.131 -0.217 -0.189 c -0.076 -0.057 -0.158 -0.11 -0.242 -0.156 c -0.082 -0.045 -0.167 -0.085 -0.255 -0.118 L 77.1 36.581 l 2.387 -0.705 c 0.087 -0.033 0.173 -0.073 0.255 -0.118 c 0.084 -0.046 0.165 -0.099 0.242 -0.156 c 0.077 -0.058 0.15 -0.121 0.218 -0.189 c 0.068 -0.068 0.131 -0.141 0.189 -0.217 c 0.057 -0.076 0.11 -0.158 0.156 -0.242 c 0.045 -0.082 0.085 -0.168 0.118 -0.255 l 0.705 -2.386 l 0.705 2.386 c 0.033 0.088 0.073 0.173 0.118 0.255 c 0.046 0.084 0.099 0.166 0.156 0.242 c 0.057 0.076 0.121 0.15 0.189 0.218 c 0.068 0.067 0.141 0.131 0.217 0.189 c 0.077 0.057 0.158 0.11 0.242 0.156 c 0.082 0.045 0.168 0.085 0.255 0.118 l 2.387 0.705 l -2.386 0.705 c -0.088 0.033 -0.173 0.073 -0.255 0.118 c -0.084 0.046 -0.166 0.099 -0.242 0.156 c -0.076 0.057 -0.15 0.121 -0.218 0.189 c -0.068 0.068 -0.131 0.141 -0.189 0.217 c -0.057 0.076 -0.11 0.158 -0.156 0.242 c -0.045 0.082 -0.085 0.167 -0.118 0.255 L 81.369 40.85 z" style="stroke: none; stroke-width: 1; stroke-dasharray: none; stroke-linecap: butt; stroke-linejoin: miter; stroke-miterlimit: 10; fill: rgb(113,126,214); fill-rule: nonzero; opacity: 1;" transform=" matrix(1 0 0 1 0 0) " stroke-linecap="round"/>
	<path d="M 10.146 57.974 l -0.943 -3.191 c -0.045 -0.117 -0.098 -0.231 -0.158 -0.341 c -0.062 -0.112 -0.132 -0.221 -0.209 -0.323 c -0.077 -0.102 -0.162 -0.2 -0.252 -0.291 c -0.091 -0.091 -0.188 -0.176 -0.291 -0.252 c -0.102 -0.077 -0.211 -0.147 -0.323 -0.209 c -0.109 -0.06 -0.224 -0.113 -0.341 -0.158 l -3.191 -0.943 l 3.191 -0.943 c 0.116 -0.045 0.231 -0.098 0.341 -0.158 c 0.112 -0.062 0.221 -0.132 0.323 -0.209 c 0.102 -0.077 0.2 -0.162 0.291 -0.252 c 0.09 -0.09 0.175 -0.188 0.252 -0.291 c 0.077 -0.102 0.147 -0.211 0.209 -0.323 c 0.06 -0.11 0.113 -0.224 0.158 -0.341 l 0.943 -3.19 l 0.943 3.19 c 0.045 0.117 0.098 0.232 0.158 0.341 c 0.062 0.113 0.132 0.221 0.209 0.323 c 0.077 0.102 0.162 0.2 0.252 0.291 c 0.09 0.09 0.188 0.175 0.291 0.252 c 0.102 0.077 0.211 0.147 0.323 0.209 c 0.11 0.06 0.224 0.113 0.341 0.158 l 3.191 0.943 l -3.19 0.943 c -0.117 0.045 -0.232 0.098 -0.341 0.158 c -0.112 0.062 -0.221 0.132 -0.324 0.209 c -0.102 0.077 -0.2 0.162 -0.291 0.252 c -0.09 0.091 -0.175 0.188 -0.252 0.291 c -0.077 0.102 -0.147 0.211 -0.209 0.323 c -0.06 0.109 -0.113 0.224 -0.158 0.341 L 10.146 57.974 z" style="stroke: none; stroke-width: 1; stroke-dasharray: none; stroke-linecap: butt; stroke-linejoin: miter; stroke-miterlimit: 10; fill: rgb(113,126,214); fill-rule: nonzero; opacity: 1;" transform=" matrix(1 0 0 1 0 0) " stroke-linecap="round"/>
	<circle cx="80.22" cy="56.85" r="1.64" style="stroke: none; stroke-width: 1; stroke-dasharray: none; stroke-linecap: butt; stroke-linejoin: miter; stroke-miterlimit: 10; fill: rgb(61,78,198); fill-rule: nonzero; opacity: 1;" transform="  matrix(1 0 0 1 0 0) "/>
	<circle cx="49.52" cy="38.13" r="1.64" style="stroke: none; stroke-width: 1; stroke-dasharray: none; stroke-linecap: butt; stroke-linejoin: miter; stroke-miterlimit: 10; fill: rgb(61,78,198); fill-rule: nonzero; opacity: 1;" transform="  matrix(1 0 0 1 0 0) "/>
	<circle cx="7.1899999999999995" cy="34.87" r="1.64" style="stroke: none; stroke-width: 1; stroke-dasharray: none; stroke-linecap: butt; stroke-linejoin: miter; stroke-miterlimit: 10; fill: rgb(61,78,198); fill-rule: nonzero; opacity: 1;" transform="  matrix(1 0 0 1 0 0) "/>
	<circle cx="57.28" cy="8.25" r="1.64" style="stroke: none; stroke-width: 1; stroke-dasharray: none; stroke-linecap: butt; stroke-linejoin: miter; stroke-miterlimit: 10; fill: rgb(61,78,198); fill-rule: nonzero; opacity: 1;" transform="  matrix(1 0 0 1 0 0) "/>
	<circle cx="19.28" cy="19.25" r="1.64" style="stroke: none; stroke-width: 1; stroke-dasharray: none; stroke-linecap: butt; stroke-linejoin: miter; stroke-miterlimit: 10; fill: rgb(61,78,198); fill-rule: nonzero; opacity: 1;" transform="  matrix(1 0 0 1 0 0) "/>
	<path d="M 45 13.865 c -17.168 0 -31.135 13.967 -31.135 31.135 S 27.832 76.135 45 76.135 S 76.135 62.168 76.135 45 S 62.168 13.865 45 13.865 z M 70.077 55.354 L 63.528 45 l 6.549 -10.354 C 71.4 37.839 72.135 41.335 72.135 45 C 72.135 48.665 71.4 52.161 70.077 55.354 z M 40.063 59.004 h 9.874 L 45 66.81 L 40.063 59.004 z M 37.533 55.004 L 31.205 45 l 6.328 -10.004 h 14.934 L 58.795 45 l -6.327 10.004 H 37.533 z M 32.8 55.004 h -7.922 l 3.961 -6.262 L 32.8 55.004 z M 28.839 41.258 l -3.961 -6.262 H 32.8 L 28.839 41.258 z M 49.937 30.996 h -9.874 L 45 23.19 L 49.937 30.996 z M 57.2 34.996 h 7.922 l -3.961 6.262 L 57.2 34.996 z M 61.161 48.742 l 3.961 6.262 H 57.2 L 61.161 48.742 z M 68.233 30.996 H 54.67 L 46.69 18.38 c -0.121 -0.191 -0.279 -0.346 -0.451 -0.483 C 55.563 18.318 63.676 23.465 68.233 30.996 z M 43.761 17.897 c -0.172 0.137 -0.33 0.292 -0.451 0.483 l -7.98 12.616 H 21.767 C 26.323 23.465 34.436 18.318 43.761 17.897 z M 19.923 34.646 L 26.472 45 l -6.549 10.354 C 18.6 52.161 17.865 48.665 17.865 45 C 17.865 41.335 18.6 37.839 19.923 34.646 z M 21.767 59.004 H 35.33 l 7.98 12.616 c 0.121 0.191 0.279 0.346 0.451 0.483 C 34.437 71.682 26.324 66.535 21.767 59.004 z M 46.239 72.103 c 0.172 -0.137 0.33 -0.292 0.451 -0.483 l 7.98 -12.616 h 13.562 C 63.676 66.535 55.563 71.682 46.239 72.103 z" style="stroke: none; stroke-width: 1; stroke-dasharray: none; stroke-linecap: butt; stroke-linejoin: miter; stroke-miterlimit: 10; fill: rgb(254,204,112); fill-rule: nonzero; opacity: 1;" transform=" matrix(1 0 0 1 0 0) " stroke-linecap="round"/>
	<path d="M 51.707 46.334 l -4.741 2.576 c -1.226 0.666 -2.706 0.666 -3.931 0 l -4.741 -2.576 c -1.058 -0.575 -1.058 -2.093 0 -2.668 l 4.741 -2.576 c 1.226 -0.666 2.706 -0.666 3.931 0 l 4.741 2.576 C 52.764 44.241 52.764 45.759 51.707 46.334 z" style="stroke: none; stroke-width: 1; stroke-dasharray: none; stroke-linecap: butt; stroke-linejoin: miter; stroke-miterlimit: 10; fill: rgb(254,204,112); fill-rule: nonzero; opacity: 1;" transform=" matrix(1 0 0 1 0 0) " stroke-linecap="round"/>
</g>
</svg>